<?xml version="1.0" encoding="UTF-8"?>
<svg width="800pt" version="1.1" xmlns="http://www.w3.org/2000/svg" height="200pt" viewBox="0 0 800 200" xmlns:xlink="http://www.w3.org/1999/xlink">
 <defs>
  <clipPath id="Clip0">
   <path d="M0 0 L713.794 0 L713.794 116.971 L0 116.971 L0 0 Z" transform="translate(44.1645, 38.9504)"/>
  </clipPath>
  <clipPath id="Clip1">
   <path d="M0 0 L16.5759 0 L16.5759 67.9793 L0 67.9793 L0 0 Z" transform="translate(743.839, 68.6174)"/>
  </clipPath>
  <clipPath id="Clip2">
   <path d="M0 0 L15.689 0 L15.689 23.7829 L0 23.7829 L0 0 Z" transform="translate(746.724, 46.3382)"/>
  </clipPath>
 </defs>
 <g id="Background">
  <g id="Copy of Group5" clip-path="url(#Clip0)">
   <path style="fill:#884c7f; fill-rule:evenodd;stroke:#161413; stroke-width:2.12; stroke-linecap:butt; stroke-linejoin:miter; stroke-dasharray:none;" id="Text11+0" d="M0 79.9141 L0 0 L16.7695 0 C16.7695 0 28.8303 0 35.8164 2.38003 C35.8164 2.38003 43.3225 4.71037 49.4291 10.3002 C49.4291 10.3002 61.7997 21.5826 61.7997 39.957 C61.7997 39.957 61.7997 58.3828 48.9124 69.7695 C48.9124 69.7695 42.4414 75.4621 35.351 77.6881 C35.351 77.6881 28.726 79.9141 16.5625 79.9141 L0 79.9141 L0 79.9141 Z M12.0608 68.5787 L17.495 68.5787 C17.495 68.5787 25.6205 68.5787 31.0033 66.8711 C31.0033 66.8711 36.3862 65.0592 40.7338 61.1256 C40.7338 61.1256 49.6362 53 49.6362 39.957 C49.6362 39.957 49.6362 26.8097 40.8382 18.6328 C40.8382 18.6328 32.918 11.3354 17.495 11.3354 L12.0608 11.3354 L12.0608 68.5787 Z" transform="translate(45.2245, 47.5149)"/>
   <path style="fill:#884c7f; fill-rule:evenodd;stroke:#161413; stroke-width:2.12; stroke-linecap:butt; stroke-linejoin:miter; stroke-dasharray:none;" id="Text11+1" d="M0 85.3482 L0 0 L58.2801 60.9699 L58.2801 5.43416 L70.3393 5.43416 L70.3393 90.2143 L12.0608 29.3984 L12.0608 85.3482 L0 85.3482 Z" transform="translate(114.768, 42.0807)"/>
   <path style="fill:#884c7f; fill-rule:evenodd;stroke:#161413; stroke-width:2.12; stroke-linecap:butt; stroke-linejoin:miter; stroke-dasharray:none;" id="Text11+2" d="M56.1055 65.5246 L21.894 65.5246 L12.9916 84.9342 L0 84.9342 L39.543 0 L77.6881 84.9342 L64.4911 84.9342 L56.1055 65.5246 L56.1055 65.5246 Z M51.1881 54.1892 L39.3359 27.0168 L26.9141 54.1892 L51.1881 54.1892 Z" transform="translate(188.298, 42.4948)"/>
   <path style="fill:#8d663f; fill-rule:evenodd;stroke:#161413; stroke-width:2.12; stroke-linecap:butt; stroke-linejoin:miter; stroke-dasharray:none;" id="Text11+4" d="M11.6451 0 L11.6451 42.8555 C11.6451 42.8555 18.6328 35.6094 27.4822 35.6094 C27.4822 35.6094 37.6797 35.6094 44.4587 43.2165 C44.4587 43.2165 51.2394 50.774 51.2394 62.0564 C51.2394 62.0564 51.2394 73.7031 44.4074 81.3103 C44.4074 81.3103 37.6267 88.8678 27.2751 88.8678 C27.2751 88.8678 18.5285 88.8678 11.6451 82.1384 L11.6451 87.4185 L0 87.4185 L0 0 L11.6451 0 L11.6451 0 Z M39.3359 62.5748 C39.3359 62.5748 39.3359 55.3287 35.4023 50.774 C35.4023 50.774 31.4158 46.115 25.4118 46.115 C25.4118 46.115 18.9939 46.115 14.9576 50.6183 C14.9576 50.6183 10.9727 55.0703 10.9727 62.2121 C10.9727 62.2121 10.9727 69.5625 14.9062 73.9615 C14.9062 73.9615 18.8398 78.4648 25.2578 78.4648 C25.2578 78.4648 31.3131 78.4648 35.298 73.9615 C35.298 73.9615 39.3359 69.4068 39.3359 62.5748 Z" transform="translate(294.151, 40.0104)"/>
   <path style="fill:#8d663f; fill-rule:evenodd;stroke:#161413; stroke-width:2.12; stroke-linecap:butt; stroke-linejoin:miter; stroke-dasharray:none;" id="Text11+5" d="M22.6691 41.0452 L0 0 L13.5084 0 L28.933 28.9844 L43.3209 0 L56.4682 0 L16.3041 77.8454 L3.00112 77.8454 L22.6691 41.0452 Z" transform="translate(341.594, 77.016)"/>
   <path style="fill:#7f5730; fill-rule:evenodd;stroke:#161413; stroke-width:2.12; stroke-linecap:butt; stroke-linejoin:miter; stroke-dasharray:none;" id="Text11+7" d="M39.543 0 L51.2411 0 L51.2411 87.4185 L39.543 87.4185 L39.543 82.1384 C39.543 82.1384 32.6596 88.8678 23.9643 88.8678 C23.9643 88.8678 13.6127 88.8678 6.78069 81.3103 C6.78069 81.3103 0 73.5988 0 62.0564 C0 62.0564 0 50.774 6.78069 43.2165 C6.78069 43.2165 13.5084 35.6094 23.7059 35.6094 C23.7059 35.6094 32.5553 35.6094 39.543 42.8555 L39.543 0 L39.543 0 Z M11.9051 62.0564 C11.9051 62.0564 11.9051 69.3025 15.7857 73.8572 C15.7857 73.8572 19.7723 78.4648 25.8276 78.4648 C25.8276 78.4648 32.2969 78.4648 36.2818 74.0128 C36.2818 74.0128 40.2684 69.4068 40.2684 62.3164 C40.2684 62.3164 40.2684 55.2243 36.2818 50.6183 C36.2818 50.6183 32.2969 46.115 25.9303 46.115 C25.9303 46.115 19.9263 46.115 15.8901 50.6697 C15.8901 50.6697 11.9051 55.2773 11.9051 62.0564 Z" transform="translate(423.999, 40.0104)"/>
   <path style="fill:#7f5730; fill-rule:evenodd;stroke:#161413; stroke-width:2.12; stroke-linecap:butt; stroke-linejoin:miter; stroke-dasharray:none;" id="Text11+8" d="M39.543 1.39622 L51.2411 1.39622 L51.2411 51.8092 L39.543 51.8092 L39.543 46.529 C39.543 46.529 32.3482 53.2584 24.067 53.2584 C24.067 53.2584 13.6127 53.2584 6.78069 45.7009 C6.78069 45.7009 0 37.9894 0 26.447 C0 26.447 0 15.1133 6.78069 7.55747 C6.78069 7.55747 13.5614 0 23.7572 0 C23.7572 0 32.5553 0 39.543 7.24609 L39.543 1.39622 L39.543 1.39622 Z M11.9051 26.447 C11.9051 26.447 11.9051 33.6931 15.7857 38.2478 C15.7857 38.2478 19.7723 42.8555 25.8276 42.8555 C25.8276 42.8555 32.2969 42.8555 36.2818 38.4035 C36.2818 38.4035 40.2684 33.7974 40.2684 26.707 C40.2684 26.707 40.2684 19.615 36.2818 15.0089 C36.2818 15.0089 32.2969 10.5056 25.9303 10.5056 C25.9303 10.5056 19.9263 10.5056 15.8901 15.0603 C15.8901 15.0603 11.9051 19.668 11.9051 26.447 Z" transform="translate(480.138, 75.6198)"/>
   <path style="fill:#714a23; fill-rule:evenodd;stroke:#161413; stroke-width:2.12; stroke-linecap:butt; stroke-linejoin:miter; stroke-dasharray:none;" id="Text11+10" d="M13.1987 0 L35.2997 55.38 L57.7104 0 L70.909 0 L35.0396 85.918 L0 0 L13.1987 0 Z" transform="translate(559.542, 47.5149)"/>
   <path style="fill:#714a23; fill-rule:evenodd;stroke:#161413; stroke-width:2.12; stroke-linecap:butt; stroke-linejoin:miter; stroke-dasharray:none;" id="Text11+11" d="M13.4057 28.466 L13.4057 78.8789 L1.76059 78.8789 L1.76059 28.466 L13.4057 28.466 L13.4057 28.466 Z M0 7.50447 C0 7.50447 0 4.45034 2.226 2.226 C2.226 2.226 4.452 0 7.55747 0 C7.55747 0 10.7143 0 12.9403 2.226 C12.9403 2.226 15.1646 4.399 15.1646 7.55581 C15.1646 7.55581 15.1646 10.7143 12.9403 12.9386 C12.9403 12.9386 10.7656 15.1646 7.60881 15.1646 C7.60881 15.1646 4.452 15.1646 2.226 12.9403 C2.226 12.9403 0 10.7143 0 7.50447 Z" transform="translate(630.017, 48.55)"/>
   <path style="fill:#714a23; fill-rule:evenodd;stroke:#161413; stroke-width:2.12; stroke-linecap:butt; stroke-linejoin:miter; stroke-dasharray:none;" id="Text11+12" d="M0 1.39622 L11.6964 1.39622 L11.6964 6.05525 C11.6964 6.05525 17.8047 0 25.4648 0 C25.4648 0 34.2628 0 39.1803 5.53684 C39.1803 5.53684 43.4236 10.2472 43.4236 20.9102 L43.4236 51.8092 L31.7271 51.8092 L31.7271 23.6529 C31.7271 23.6529 31.7271 16.1998 29.6568 13.3527 C29.6568 13.3527 27.6378 10.4543 22.3064 10.4543 C22.3064 10.4543 16.5095 10.4543 14.0781 14.2852 C14.0781 14.2852 11.6964 18.0631 11.6964 27.4822 L11.6964 51.8092 L0 51.8092 L0 1.39622 Z" transform="translate(650.755, 75.6198)"/>
   <path style="fill:#714a23; fill-rule:evenodd;stroke:#161413; stroke-width:2.12; stroke-linecap:butt; stroke-linejoin:miter; stroke-dasharray:none;" id="Text11+13" d="M41.6133 3.57088 L41.6133 19.0469 C41.6133 19.0469 37.6283 14.1808 34.4715 12.3689 C34.4715 12.3689 31.3661 10.5056 27.1724 10.5056 C27.1724 10.5056 20.6004 10.5056 16.2528 15.1133 C16.2528 15.1133 11.9051 19.7193 11.9051 26.654 C11.9051 26.654 11.9051 33.7461 16.0971 38.3008 C16.0971 38.3008 20.3404 42.8555 26.9141 42.8555 C26.9141 42.8555 31.106 42.8555 34.3158 41.0435 C34.3158 41.0435 37.4213 39.2829 41.6133 34.2115 L41.6133 49.5832 C41.6133 49.5832 34.5229 53.2584 27.4325 53.2584 C27.4325 53.2584 15.7344 53.2584 7.86719 45.7009 C7.86719 45.7009 0 38.0938 0 26.8097 C0 26.8097 0 15.5273 7.96988 7.7645 C7.96988 7.7645 15.9414 0 27.5352 0 C27.5352 0 34.9883 0 41.6133 3.57088 Z" transform="translate(699.077, 75.6198)"/>
   <path style="fill:none;stroke:none;" id="Text11+14" d="M13.4057 28.466 L13.4057 78.8789 L1.76059 78.8789 L1.76059 28.466 L13.4057 28.466 L13.4057 28.466 Z M0 7.50447 C0 7.50447 0 4.45034 2.226 2.226 C2.226 2.226 4.452 0 7.55747 0 C7.55747 0 10.7143 0 12.9403 2.226 C12.9403 2.226 15.1646 4.399 15.1646 7.55581 C15.1646 7.55581 15.1646 10.7143 12.9403 12.9386 C12.9403 12.9386 10.7656 15.1646 7.60881 15.1646 C7.60881 15.1646 4.452 15.1646 2.226 12.9403 C2.226 12.9403 0 10.7143 0 7.50447 Z" transform="translate(742.794, 48.55)"/>
  </g>
  <g id="Group7" clip-path="url(#Clip1)">
   <path style="fill:#714a23; fill-rule:evenodd;stroke:#161413; stroke-width:2.07044; stroke-linecap:butt; stroke-linejoin:miter; stroke-dasharray:none;" d="M10.9847 7.54378 C10.1014 11.7287 8.63661 14.9987 5.69261 14.9987 C2.7487 14.9987 0 12.762 0.352074 7.60051 C1.26747 2.04193 0.563318 0.567201 5.69261 0 C11.6184 0.567201 11.5801 2.19979 10.9847 7.54378 Z" transform="translate(747.691, 69.6526)"/>
   <path style="fill:#714a23; fill-rule:evenodd;stroke:#161413; stroke-width:2.07044; stroke-linecap:butt; stroke-linejoin:miter; stroke-dasharray:none;" d="M10.6608 7.49937 C11.3266 13.524 10.6096 15.1122 5.33042 14.9987 C1.75025 15.339 0.341958 13.8643 0 7.49937 C0 3.35758 2.38651 0 5.33042 0 C8.27443 0 9.21423 3.08749 10.6608 7.49937 Z" transform="translate(748.053, 120.222)"/>
   <path style="fill:#714a23; fill-rule:evenodd;stroke:#161413; stroke-width:2.07044; stroke-linecap:butt; stroke-linejoin:miter; stroke-dasharray:none;" d="M3.17879 0.11344 C3.17879 0.11344 13.238 0 13.8396 0.11344 C13.8396 0.11344 10.5622 27.1122 13.8396 51.3884 C13.8396 51.3884 9.01308 53.4304 3.17879 51.3884 C0 27.339 3.17879 0.11344 3.17879 0.11344 Z" transform="translate(744.874, 77.2531)"/>
   <path style="fill:#714a23; fill-rule:evenodd;stroke:none;" d="M2 1.625 C5.1875 0 9.25579 1.77937 10.3125 3 C9.81829 7.15437 7.85867 31.8598 10.5 57.375 C10.5 57.375 6.70202 59.3648 2 57.2188 C0 45.5938 1.3125 3.4375 2 1.625 Z" transform="translate(747.375, 73.375)"/>
  </g>
  <g id="Group6" clip-path="url(#Clip2)">
   <path style="fill:#161413; fill-rule:evenodd;stroke:#161413; stroke-width:2.07044; stroke-linecap:butt; stroke-linejoin:miter; stroke-dasharray:none;" d="M12.3783 10.559 C12.4854 14.9772 9.83656 16.0944 6.36681 17.4848 C3.89603 16.0833 0 14.7036 0.25224 10.7861 C0.389923 5.16596 3.15659 2.89521 5.68477 0 C7.79469 1.02184 11.51 4.76856 12.3783 10.559 Z" transform="translate(748.799, 50.8701) rotate(3.2239)"/>
   <path style="fill:#fefe22; fill-rule:evenodd;stroke:#161413; stroke-width:2.07044; stroke-linecap:butt; stroke-linejoin:miter; stroke-dasharray:none;" d="M0.571685 10.4374 C0 6.62526 4.81684 0 4.81684 0 C4.81684 0 7.63456 5.20454 10.3152 10.6591 C9.00107 11.6395 0.553112 11.0715 0.571685 10.4374 Z" transform="translate(751.023, 47.4961) rotate(7.27059)"/>
   <path style="fill:#fefe22; fill-rule:evenodd;stroke:none;" d="M3.35279 3.80184 C3.39953 4.89921 2.5372 5.78874 1.42667 5.78874 C0.31617 5.78874 0.0467333 5.46285 0 4.36547 C0.152891 2.9319 1.10283 0.202956 2.28566 1.49047e-14 C3.39619 0 3.30606 2.7045 3.35279 3.80184 Z" transform="translate(750.579, 54.3835) rotate(3.2239)"/>
   <path style="fill:#fefe22; fill-rule:evenodd;stroke:none;" d="M2.94469 5.07175 C3.69017 6.16903 3.14488 6.62138 1.98414 6.5625 C1.01295 6.5625 0 5.5575 0.109923 4.45398 C0.219842 3.35051 1.46139 0 1.83607 2.0514 C2.17349 2.92663 2.28138 3.44962 2.94469 5.07175 Z" transform="translate(755.431, 54.1636) rotate(-8.89891)"/>
   <path style="fill:#fefe22; fill-rule:evenodd;stroke:none;" d="M4.33015 1.9869 C4.33017 3.08428 3.36091 3.97381 2.16514 3.97381 C0.969409 3.97381 5.59062e-05 3.08428 2.79526e-05 1.9869 C0 0.889568 0.969307 1.36002e-15 2.16504 1.08247e-15 C3.36081 0 4.33012 0.889568 4.33015 1.9869 Z" transform="translate(752.845, 55.5557) rotate(3.2239)"/>
  </g>
 </g>
</svg>
